<svg width="64" height="64" viewBox="0 0 64 64" fill="none" xmlns="http://www.w3.org/2000/svg">
<path fill-rule="evenodd" clip-rule="evenodd" d="M5 4H59C59.5523 4 60 4.44772 60 5V59C60 59.5523 59.5523 60 59 60H5C4.44772 60 4 59.5523 4 59V5C4 4.44772 4.44772 4 5 4ZM0 5C0 2.23858 2.23858 0 5 0H59C61.7614 0 64 2.23858 64 5V59C64 61.7614 61.7614 64 59 64H5C2.23858 64 0 61.7614 0 59V5ZM39.272 49H51.176V47.608C50.632 47.352 50.056 47.144 49.448 46.984C48.872 46.792 48.248 46.632 47.576 46.504V17.992C48.216 17.864 48.84 17.704 49.448 17.512C50.056 17.288 50.648 17.048 51.224 16.792V15.4H42.536L33.896 37.24L32.264 42.28H32.216L30.584 37.336L22.232 15.4H12.392V16.792C13.032 17.048 13.672 17.288 14.312 17.512C14.984 17.704 15.656 17.864 16.328 17.992V46.408C15.656 46.536 14.984 46.712 14.312 46.936C13.672 47.128 13.048 47.352 12.44 47.608V49H22.472V47.608C21.864 47.352 21.256 47.128 20.648 46.936C20.04 46.744 19.432 46.584 18.824 46.456V24.856L18.776 18.76H19.208L20.936 24.376L30.296 49H31.544L41.384 24.376L42.968 19.24H43.352L43.16 24.856V46.456C42.488 46.616 41.832 46.792 41.192 46.984C40.552 47.144 39.912 47.352 39.272 47.608V49Z" fill="#FF4B36"/>
</svg>
