<svg width="155" height="46" viewBox="0 0 155 46" fill="none" xmlns="http://www.w3.org/2000/svg">
<path d="M0 3C0 1.34315 1.34315 0 3 0H35C36.6569 0 38 1.34315 38 3V35C38 36.6569 36.6569 38 35 38H3C1.34315 38 0 36.6569 0 35V3Z" fill="#FEA202"/>
<path d="M150.774 45.1759C149.777 45.1759 148.941 44.8532 148.266 44.2079C147.621 43.5332 147.298 42.6972 147.298 41.6999C147.298 40.6732 147.621 39.8372 148.266 39.1919C148.911 38.5465 149.747 38.2239 150.774 38.2239C151.801 38.2239 152.637 38.5465 153.282 39.1919C153.927 39.8372 154.25 40.6732 154.25 41.6999C154.25 42.6972 153.913 43.5332 153.238 44.2079C152.593 44.8532 151.771 45.1759 150.774 45.1759Z" fill="#FEA202"/>
<path d="M136.165 14.728C136.165 14.5813 136.209 14.464 136.297 14.376C136.414 14.2586 136.546 14.2 136.693 14.2H141.841C141.987 14.2 142.105 14.2586 142.193 14.376C142.31 14.464 142.369 14.5813 142.369 14.728V44.472C142.369 44.6186 142.31 44.7506 142.193 44.868C142.105 44.956 141.987 45 141.841 45H136.869C136.575 45 136.37 44.8826 136.253 44.648L124.857 25.816C124.798 25.728 124.739 25.6986 124.681 25.728C124.622 25.728 124.593 25.7866 124.593 25.904L124.681 44.472C124.681 44.6186 124.622 44.7506 124.505 44.868C124.417 44.956 124.299 45 124.153 45H119.005C118.858 45 118.726 44.956 118.609 44.868C118.521 44.7506 118.477 44.6186 118.477 44.472V14.728C118.477 14.5813 118.521 14.464 118.609 14.376C118.726 14.2586 118.858 14.2 119.005 14.2H123.977C124.27 14.2 124.475 14.3173 124.593 14.552L135.945 33.296C136.003 33.384 136.062 33.428 136.121 33.428C136.179 33.3986 136.209 33.3253 136.209 33.208L136.165 14.728Z" fill="#FEA202"/>
<path d="M108.537 45C108.244 45 108.053 44.8533 107.965 44.56L106.645 40.248C106.586 40.1306 106.513 40.072 106.425 40.072H95.6009C95.5129 40.072 95.4396 40.1306 95.3809 40.248L94.1049 44.56C94.0169 44.8533 93.8263 45 93.5329 45H87.9449C87.7689 45 87.6369 44.956 87.5489 44.868C87.4609 44.7506 87.4463 44.5893 87.5049 44.384L97.0089 14.64C97.0969 14.3466 97.2876 14.2 97.5809 14.2H104.489C104.782 14.2 104.973 14.3466 105.061 14.64L114.565 44.384C114.594 44.4426 114.609 44.516 114.609 44.604C114.609 44.868 114.448 45 114.125 45H108.537ZM96.9649 35.012C96.9356 35.188 96.9943 35.276 97.1409 35.276H104.885C105.061 35.276 105.12 35.188 105.061 35.012L101.101 21.944C101.072 21.8266 101.028 21.7826 100.969 21.812C100.91 21.812 100.866 21.856 100.837 21.944L96.9649 35.012Z" fill="#FEA202"/>
<path d="M77.3833 14.728C77.3833 14.5813 77.4273 14.464 77.5153 14.376C77.6326 14.2586 77.7646 14.2 77.9113 14.2H83.0593C83.206 14.2 83.3233 14.2586 83.4113 14.376C83.5286 14.464 83.5873 14.5813 83.5873 14.728V44.472C83.5873 44.6186 83.5286 44.7506 83.4113 44.868C83.3233 44.956 83.206 45 83.0593 45H78.0873C77.794 45 77.5886 44.8826 77.4713 44.648L66.0753 25.816C66.0166 25.728 65.958 25.6986 65.8993 25.728C65.8406 25.728 65.8113 25.7866 65.8113 25.904L65.8993 44.472C65.8993 44.6186 65.8406 44.7506 65.7233 44.868C65.6353 44.956 65.518 45 65.3713 45H60.2233C60.0766 45 59.9446 44.956 59.8273 44.868C59.7393 44.7506 59.6953 44.6186 59.6953 44.472V14.728C59.6953 14.5813 59.7393 14.464 59.8273 14.376C59.9446 14.2586 60.0766 14.2 60.2233 14.2H65.1953C65.4886 14.2 65.694 14.3173 65.8113 14.552L77.1633 33.296C77.222 33.384 77.2806 33.428 77.3393 33.428C77.398 33.3986 77.4273 33.3253 77.4273 33.208L77.3833 14.728Z" fill="#FEA202"/>
<path d="M48.6647 45C48.5181 45 48.3861 44.956 48.2687 44.868C48.1807 44.7506 48.1367 44.6186 48.1367 44.472V14.728C48.1367 14.5813 48.1807 14.464 48.2687 14.376C48.3861 14.2586 48.5181 14.2 48.6647 14.2H53.8127C53.9594 14.2 54.0767 14.2586 54.1647 14.376C54.2821 14.464 54.3407 14.5813 54.3407 14.728V44.472C54.3407 44.6186 54.2821 44.7506 54.1647 44.868C54.0767 44.956 53.9594 45 53.8127 45H48.6647Z" fill="white"/>
<path d="M36.4836 14.552C36.6303 14.3173 36.8356 14.2 37.0996 14.2H42.2476C42.3943 14.2 42.5116 14.2586 42.5996 14.376C42.7169 14.464 42.7756 14.5813 42.7756 14.728V44.472C42.7756 44.6186 42.7169 44.7506 42.5996 44.868C42.5116 44.956 42.3943 45 42.2476 45H37.0996C36.9529 45 36.8209 44.956 36.7036 44.868C36.6156 44.7506 36.5716 44.6186 36.5716 44.472V25.068C36.5716 24.9506 36.5423 24.892 36.4836 24.892C36.4249 24.892 36.3663 24.936 36.3076 25.024L31.6436 32.328C31.4969 32.5626 31.2916 32.68 31.0276 32.68H28.4316C28.1676 32.68 27.9623 32.5626 27.8156 32.328L23.1516 25.024C23.0929 24.936 23.0343 24.9066 22.9756 24.936C22.9169 24.936 22.8876 24.9946 22.8876 25.112V44.472C22.8876 44.6186 22.8289 44.7506 22.7116 44.868C22.6236 44.956 22.5063 45 22.3596 45H17.2116C17.0649 45 16.9329 44.956 16.8156 44.868C16.7276 44.7506 16.6836 44.6186 16.6836 44.472V14.728C16.6836 14.5813 16.7276 14.464 16.8156 14.376C16.9329 14.2586 17.0649 14.2 17.2116 14.2H22.3596C22.6236 14.2 22.8289 14.3173 22.9756 14.552L29.5756 24.804C29.6636 24.98 29.7516 24.98 29.8396 24.804L36.4836 14.552Z" fill="white"/>
</svg>
